<?xml version="1.0" standalone="no"?>
<!DOCTYPE svg PUBLIC "-//W3C//DTD SVG 20010904//EN"
 "http://www.w3.org/TR/2001/REC-SVG-20010904/DTD/svg10.dtd">
<svg version="1.0" xmlns="http://www.w3.org/2000/svg"
 width="228.000000pt" height="254.000000pt" viewBox="0 0 228.000000 254.000000"
 preserveAspectRatio="xMidYMid meet">
<metadata>
Created by potrace 1.16, written by Peter Selinger 2001-2019
</metadata>
<g transform="translate(0.000000,254.000000) scale(0.100000,-0.100000)"
fill="#000000" stroke="none">
<path d="M1007 1950 c-27 -5 -52 -11 -55 -15 -7 -6 -5 -79 4 -140 l6 -40 -38
36 c-22 20 -66 51 -99 70 -202 113 -345 -58 -380 -453 -6 -59 -9 -68 -27 -68
-30 0 -78 -53 -78 -87 0 -46 77 -459 90 -483 19 -36 66 -50 133 -38 31 5 57
13 57 17 0 4 -9 58 -20 119 -11 62 -22 134 -25 162 -7 68 -44 277 -56 307 -6
17 -14 23 -25 19 -15 -6 -16 3 -10 76 15 170 56 293 122 367 74 82 140 82 233
-2 99 -90 138 -142 145 -195 3 -26 9 -64 12 -84 5 -32 2 -43 -23 -72 -110
-125 -13 -326 157 -326 14 0 48 11 77 24 121 57 150 215 57 313 -38 40 -38 40
-18 153 9 49 52 99 140 165 51 39 88 59 113 62 140 19 246 -145 275 -425 l7
-64 -28 6 -29 7 -18 -118 c-22 -149 -76 -474 -81 -489 -5 -16 103 -32 143 -22
20 5 37 19 46 37 8 15 33 130 55 255 37 210 39 230 26 262 -10 24 -26 39 -50
49 -33 15 -35 18 -35 63 0 156 -76 361 -159 430 -39 32 -104 54 -145 49 -61
-9 -145 -49 -197 -95 l-46 -41 5 98 c4 96 4 98 -19 105 -43 11 -193 15 -242 6z
m173 -525 c35 -18 60 -62 60 -105 0 -69 -53 -120 -125 -120 -26 0 -45 9 -73
34 -34 31 -37 39 -37 86 0 47 3 55 37 86 43 38 88 45 138 19z"/>
</g>
</svg>
