<?xml version="1.0" standalone="no"?>
<!DOCTYPE svg PUBLIC "-//W3C//DTD SVG 20010904//EN"
 "http://www.w3.org/TR/2001/REC-SVG-20010904/DTD/svg10.dtd">
<svg version="1.0" xmlns="http://www.w3.org/2000/svg"
 width="100.000000pt" height="100.000000pt" viewBox="0 0 100.000000 100.000000"
 preserveAspectRatio="xMidYMid meet">
<metadata>
Created by potrace 1.16, written by Peter Selinger 2001-2019
</metadata>
<g transform="translate(0.000000,100.000000) scale(0.019531,-0.019531)"
fill="#000000" stroke="none">
<path d="M1805 4805 c-490 -79 -911 -388 -1134 -831 -105 -209 -150 -390 -158
-634 -10 -304 53 -571 193 -815 197 -342 510 -593 888 -711 l86 -26 0 -632 c0
-720 -3 -694 80 -776 85 -86 -19 -80 1385 -80 1404 0 1300 -6 1386 80 85 85
80 -7 77 1301 l-3 1154 -22 40 c-28 53 -78 99 -133 124 -43 20 -64 21 -466 21
l-421 0 7 43 c28 152 19 389 -22 562 -137 592 -590 1038 -1183 1165 -132 28
-427 36 -560 15z m185 -457 l0 -351 -122 7 c-112 6 -291 27 -360 42 l-27 5 26
72 c35 100 104 239 155 317 50 75 151 180 200 207 38 20 109 52 121 52 4 1 7
-157 7 -351z m251 292 c90 -59 202 -195 271 -335 49 -96 100 -247 88 -255 -19
-11 -241 -39 -372 -46 l-118 -7 0 351 0 351 42 -15 c23 -8 63 -28 89 -44z
m-616 -49 c-93 -116 -192 -306 -241 -462 l-17 -57 -86 24 c-86 23 -231 77
-284 105 l-29 15 98 93 c156 148 327 252 525 321 46 16 85 29 87 29 2 1 -22
-30 -53 -68z m940 16 c71 -26 187 -87 274 -145 92 -60 287 -241 274 -253 -14
-14 -207 -87 -295 -112 l-86 -24 -32 89 c-64 178 -164 359 -253 455 l-38 42
58 -19 c32 -10 76 -25 98 -33z m673 -550 c127 -201 200 -412 227 -659 l6 -58
-314 0 -314 0 -7 38 c-3 20 -6 62 -6 94 0 75 -27 281 -51 392 -20 93 -17 105
21 106 28 1 278 89 336 119 33 16 60 30 61 31 0 0 19 -28 41 -63z m-2238 13
c51 -23 145 -57 209 -76 63 -19 117 -37 120 -39 2 -3 -3 -40 -13 -82 -25 -118
-45 -274 -52 -410 l-7 -123 -315 0 -315 0 7 86 c9 110 53 283 101 399 49 119
145 285 164 285 4 0 49 -18 101 -40z m655 -165 c61 -7 161 -16 223 -20 l112
-7 0 -269 0 -269 -308 0 -307 0 7 128 c7 120 29 294 48 372 4 19 11 48 15 64
6 28 7 28 53 22 26 -4 97 -13 157 -21z m1014 -87 c26 -138 37 -230 47 -370 l7
-108 -307 0 -306 0 0 269 0 269 108 7 c106 6 348 33 367 40 6 2 22 4 36 4 26
1 27 -1 48 -111z m-1409 -640 c0 -87 20 -275 42 -398 11 -63 23 -128 25 -145
l4 -30 -113 -31 c-93 -26 -172 -56 -313 -120 -13 -6 -104 139 -148 236 -68
147 -127 379 -127 497 l0 43 315 0 315 0 0 -52z m730 -53 l0 -105 -52 0 c-95
0 -186 -60 -234 -153 -10 -18 -20 -68 -23 -116 l-6 -85 -90 -13 c-49 -7 -100
-15 -112 -18 -19 -4 -23 1 -36 63 -27 117 -48 273 -55 405 l-7 127 307 0 308
0 0 -105z m730 61 c0 -23 -3 -71 -6 -105 l-7 -61 -298 0 -299 0 0 105 0 105
305 0 305 0 0 -44z m745 -18 c-4 -35 -10 -81 -14 -103 l-7 -40 -307 -3 -307
-2 0 52 c0 29 3 77 6 106 l7 52 314 0 315 0 -7 -62z m-1785 -840 l0 -223 -20
25 c-29 37 -125 234 -154 317 l-25 71 67 11 c37 6 78 12 92 14 14 3 28 5 33 6
4 0 7 -99 7 -221z m-285 80 c57 -170 145 -331 242 -445 24 -29 42 -53 40 -53
-3 0 -45 14 -94 31 -190 67 -366 176 -515 318 -48 46 -88 87 -88 91 0 19 304
131 376 139 6 0 23 -36 39 -81z m1546 -18 c18 -45 39 -86 47 -92 10 -9 212
-11 758 -9 l744 3 0 -885 0 -884 -23 -33 c-12 -19 -38 -43 -57 -54 -35 -21
-45 -21 -1243 -24 -798 -1 -1222 1 -1247 8 -47 13 -85 42 -108 83 -16 30 -17
99 -20 905 l-3 872 211 0 c118 0 219 4 229 10 10 5 25 26 34 47 8 21 24 59 36
86 l20 47 294 0 295 0 33 -80z"/>
<path d="M2326 1764 c-14 -13 -16 -63 -16 -395 0 -366 1 -380 20 -399 26 -26
46 -25 75 5 24 23 25 28 25 175 l0 150 114 0 c124 0 146 8 146 55 0 47 -22 55
-146 55 l-114 0 0 130 0 130 173 0 c188 0 197 2 197 55 0 17 -5 36 -12 43 -9
9 -74 12 -229 12 -184 0 -220 -2 -233 -16z"/>
<path d="M2897 1762 c-21 -23 -22 -56 -1 -76 12 -13 39 -16 130 -16 l114 0 0
-340 c0 -331 1 -341 21 -361 15 -15 28 -19 47 -14 52 12 52 14 52 377 l0 338
113 0 c98 0 116 3 130 18 21 23 21 41 1 70 -15 22 -17 22 -303 22 -266 0 -289
-1 -304 -18z"/>
<path d="M3626 1765 c-14 -15 -16 -58 -16 -399 0 -406 -1 -396 47 -410 17 -5
29 -1 48 18 24 24 25 29 25 165 l0 139 108 4 c100 3 112 5 158 33 155 96 155
334 0 430 -48 29 -52 30 -201 33 -131 3 -155 1 -169 -13z m304 -121 c37 -21
70 -76 70 -114 0 -38 -33 -93 -70 -114 -23 -14 -58 -21 -117 -24 l-83 -5 0
143 0 143 83 -5 c59 -3 94 -10 117 -24z"/>
<path d="M3237 4602 c-33 -36 -21 -60 81 -167 159 -164 268 -349 344 -580 22
-66 44 -125 50 -132 16 -19 63 -16 83 7 21 23 17 52 -27 183 -78 234 -202 441
-363 605 -106 108 -134 122 -168 84z"/>
<path d="M4182 4393 c-20 -8 -190 -238 -197 -266 -5 -18 -1 -31 14 -46 35 -35
66 -27 111 30 l40 51 0 -412 c0 -264 4 -418 10 -431 7 -13 21 -19 45 -19 65 0
65 -4 65 450 l0 405 36 -42 c27 -32 43 -43 64 -43 30 0 60 30 60 61 0 20 -176
252 -198 261 -20 8 -32 8 -50 1z"/>
<path d="M3746 3598 c-19 -27 -12 -139 10 -175 18 -29 64 -30 89 -3 15 17 17
30 11 92 -5 44 -14 80 -23 91 -23 24 -68 22 -87 -5z"/>
<path d="M1104 1706 c-18 -14 -19 -33 -24 -429 l-5 -415 -29 39 c-24 31 -36
39 -61 39 -40 0 -70 -30 -62 -62 4 -13 46 -75 94 -138 81 -105 92 -115 124
-118 35 -3 38 0 123 113 108 144 114 156 92 190 -11 17 -25 25 -46 25 -29 0
-36 -5 -89 -70 l-20 -25 -1 416 c0 390 -1 417 -18 432 -23 21 -52 22 -78 3z"/>
</g>
</svg>
