<?xml version="1.0" standalone="no"?>
<!DOCTYPE svg PUBLIC "-//W3C//DTD SVG 20010904//EN"
 "http://www.w3.org/TR/2001/REC-SVG-20010904/DTD/svg10.dtd">
<svg version="1.0" xmlns="http://www.w3.org/2000/svg"
 width="180.000000pt" height="180.000000pt" viewBox="0 0 180.000000 180.000000"
 preserveAspectRatio="xMidYMid meet">
<metadata>
Created by potrace 1.16, written by Peter Selinger 2001-2019
</metadata>
<g transform="translate(0.000000,180.000000) scale(0.015000,-0.014988)"
fill="#000000" stroke="none">
<path d="M5515 11996 c-1150 -101 -2202 -500 -3115 -1180 -233 -173 -428 -343
-650 -566 -295 -295 -519 -567 -747 -910 -496 -742 -821 -1591 -947 -2471 -53
-367 -58 -456 -53 -937 4 -480 9 -544 68 -902 312 -1905 1510 -3536 3229
-4395 708 -355 1409 -553 2210 -626 188 -17 976 -7 1145 15 479 61 842 141
1231 271 731 243 1378 603 1979 1101 165 136 600 571 735 734 692 836 1138
1795 1320 2844 71 406 75 469 75 1041 -1 507 -1 525 -28 715 -133 976 -445
1818 -962 2600 -606 917 -1470 1661 -2462 2120 -619 285 -1239 456 -1943 536
-197 22 -874 28 -1085 10z m1000 -107 c1316 -122 2553 -674 3511 -1566 1083
-1010 1762 -2429 1865 -3896 15 -227 7 -833 -15 -1027 -106 -937 -405 -1796
-893 -2564 -236 -370 -468 -663 -776 -975 -310 -313 -604 -556 -952 -786 -696
-460 -1537 -786 -2345 -909 -803 -123 -1575 -87 -2355 111 -862 217 -1654 623
-2360 1209 -167 138 -570 541 -709 709 -721 868 -1186 1911 -1335 2995 -42
309 -46 376 -46 810 1 432 5 514 46 805 168 1199 688 2303 1507 3199 234 255
511 506 797 721 937 704 2077 1117 3255 1179 116 6 692 -5 805 -15z"/>
<path d="M5595 11860 c-411 -28 -802 -97 -1218 -216 -799 -229 -1558 -637
-2196 -1181 -158 -134 -495 -471 -624 -622 -775 -909 -1238 -1966 -1389 -3173
-21 -168 -23 -223 -23 -658 0 -525 5 -601 70 -985 234 -1396 967 -2664 2061
-3561 1073 -880 2461 -1364 3819 -1330 499 12 859 58 1300 166 599 147 1209
405 1736 735 893 560 1634 1376 2110 2328 334 667 524 1329 604 2102 22 216
23 852 1 1075 -120 1216 -579 2314 -1362 3255 -132 158 -495 525 -659 665
-366 312 -756 569 -1205 794 -641 320 -1289 509 -2030 591 -170 19 -791 28
-995 15z m893 -646 c185 -27 306 -81 408 -182 104 -104 149 -258 126 -436 -37
-283 -210 -474 -462 -507 -174 -23 -546 7 -577 48 -7 9 -10 34 -7 62 57 584
107 1011 120 1033 9 14 247 3 392 -18z m-974 -21 c3 -10 10 -49 17 -86 9 -57
9 -71 -3 -83 -7 -7 -97 -30 -200 -50 -103 -21 -193 -41 -200 -45 -10 -6 -10
-23 1 -86 19 -120 14 -113 79 -113 31 0 102 7 157 15 55 8 121 15 146 15 l47
0 11 -44 c6 -25 11 -67 11 -95 l0 -50 -52 -10 c-29 -6 -116 -24 -193 -39
l-140 -28 4 -49 c2 -28 8 -81 15 -120 l12 -70 65 3 c35 2 124 12 197 23 165
24 188 24 197 2 4 -10 13 -49 20 -88 12 -59 12 -72 0 -84 -8 -9 -136 -34 -337
-67 -178 -30 -328 -54 -335 -54 -7 0 -17 9 -23 19 -13 25 -64 311 -131 744
-41 263 -51 340 -41 346 25 15 559 108 634 110 27 1 38 -4 42 -16z m-1232
-376 c100 -59 153 -151 152 -267 0 -61 -5 -85 -27 -127 -36 -71 -35 -89 7
-103 19 -6 52 -24 74 -39 49 -36 282 -306 282 -327 0 -9 -31 -30 -84 -55 -133
-62 -130 -62 -206 18 -36 38 -91 99 -123 136 -32 37 -72 74 -89 83 -35 18 -94
14 -154 -11 -34 -14 -36 -17 -30 -47 3 -17 38 -106 76 -197 39 -91 68 -171 65
-178 -4 -13 -146 -85 -192 -98 -27 -7 -26 -9 -188 350 -184 408 -285 644 -279
659 12 30 312 181 429 215 102 30 224 25 287 -12z m3986 -101 c214 -90 411
-231 460 -330 48 -94 38 -202 -25 -277 -32 -38 -110 -78 -168 -86 -25 -3 -48
-9 -50 -14 -3 -4 8 -35 25 -68 39 -77 47 -141 26 -213 -20 -69 -88 -148 -160
-186 -45 -24 -61 -27 -146 -26 -81 0 -107 5 -179 32 -134 51 -393 195 -416
232 -7 11 80 183 275 540 190 348 239 430 260 430 10 0 54 -15 98 -34z m-5143
-428 c53 -61 72 -103 56 -122 -7 -9 -78 -68 -157 -132 -79 -64 -144 -121 -144
-128 0 -16 51 -89 93 -133 l31 -33 32 19 c17 10 86 60 153 110 67 50 129 91
139 91 18 0 68 -56 102 -113 l21 -36 -88 -73 c-49 -40 -116 -95 -151 -123 -34
-27 -62 -55 -62 -61 0 -16 80 -122 119 -158 38 -36 30 -39 201 87 151 112 183
132 203 124 23 -9 109 -126 103 -142 -2 -7 -35 -39 -73 -70 -92 -76 -437 -341
-461 -354 -16 -8 -24 -4 -49 22 -48 51 -515 654 -617 795 -38 52 -38 53 -20
74 51 56 497 397 521 398 6 0 28 -19 48 -42z m6204 -244 c45 -42 81 -84 81
-93 0 -18 -54 -180 -114 -344 -20 -54 -36 -104 -36 -112 0 -18 0 -18 246 91
105 46 198 84 208 84 9 0 57 -39 107 -87 73 -70 87 -89 77 -99 -13 -13 -244
-91 -530 -179 l-157 -48 -161 -169 c-139 -145 -164 -167 -180 -158 -28 15
-139 120 -151 142 -12 22 9 49 182 236 79 84 103 118 115 157 8 28 51 181 94
340 44 160 84 300 90 313 13 30 26 23 129 -74z m-3063 -364 c297 -24 580 -80
874 -173 318 -101 715 -301 1005 -507 307 -219 646 -562 870 -881 724 -1031
870 -2348 391 -3519 -286 -698 -789 -1298 -1429 -1706 -476 -303 -1038 -500
-1601 -559 -193 -20 -573 -20 -759 1 -699 77 -1337 337 -1902 776 -160 124
-484 449 -604 604 -224 293 -391 579 -521 895 -348 847 -364 1809 -43 2673 54
148 217 484 301 623 422 698 1043 1221 1812 1526 507 201 1078 289 1606 247z
m-4104 -187 c70 -73 552 -627 632 -726 39 -49 69 -96 68 -105 -6 -25 -121
-190 -138 -196 -21 -8 -166 48 -458 176 -136 60 -251 107 -254 104 -3 -3 53
-67 124 -142 180 -189 303 -323 351 -381 l42 -49 -27 -46 c-39 -67 -104 -155
-124 -167 -17 -11 -156 39 -693 249 -310 121 -375 149 -375 164 0 16 96 169
119 190 26 24 29 23 424 -153 176 -79 321 -140 325 -137 6 6 -14 27 -305 331
-208 217 -235 249 -225 275 16 42 119 180 138 186 26 7 102 -24 444 -177 149
-66 274 -119 276 -116 3 3 -105 117 -239 255 -135 138 -257 267 -272 286 l-28
36 48 73 c48 73 84 117 95 117 3 0 26 -21 52 -47z m8482 -1723 c44 0 142 5
218 12 76 6 142 8 146 4 4 -4 -64 -76 -151 -159 l-158 -152 1 -80 c0 -44 5
-142 11 -219 5 -76 7 -141 3 -145 -3 -3 -76 67 -163 155 l-156 161 -213 -15
c-117 -8 -215 -12 -219 -8 -9 9 38 56 186 189 l124 112 -7 135 c-3 74 -9 180
-12 235 l-6 100 159 -163 158 -163 79 1z m-9009 -26 c334 -89 506 -347 440
-659 -23 -107 -68 -190 -149 -271 -111 -112 -196 -144 -376 -144 -126 0 -194
16 -309 71 -68 32 -100 55 -160 117 -87 88 -124 155 -147 262 -44 210 55 452
231 565 48 31 143 69 195 79 46 9 214 -4 275 -20z m-343 -1437 c72 -35 140
-110 169 -185 19 -53 41 -158 55 -274 l5 -48 190 0 c143 0 191 -3 194 -12 9
-30 14 -190 5 -212 -8 -23 -13 -24 -162 -30 -366 -15 -913 -24 -930 -15 -9 5
-22 26 -28 47 -16 56 -24 356 -12 439 23 159 108 270 242 314 14 5 68 7 120 6
81 -2 104 -7 152 -30z m8795 -1498 c76 -28 96 -46 88 -79 -3 -14 -34 -101 -67
-193 -71 -194 -72 -183 36 -223 111 -40 103 -46 174 130 35 84 70 163 78 175
19 26 38 26 106 0 99 -38 97 -21 24 -232 l-65 -185 57 -30 c31 -16 81 -37 111
-47 65 -21 64 -22 112 94 113 275 121 291 154 291 31 0 142 -48 148 -64 6 -15
-49 -176 -138 -406 -76 -196 -101 -250 -116 -250 -32 0 -996 375 -1019 396
-13 13 -11 26 18 110 36 106 146 387 185 477 15 33 32 57 41 57 8 0 41 -10 73
-21z m-8174 -939 c106 -115 154 -160 170 -160 12 0 101 7 197 15 216 18 220
18 220 2 0 -8 -70 -79 -156 -158 l-157 -143 6 -111 c4 -60 10 -161 13 -222 4
-68 3 -113 -2 -113 -5 0 -77 70 -159 156 l-149 157 -121 -7 c-66 -3 -166 -9
-222 -12 -68 -5 -103 -4 -103 3 0 6 70 75 155 153 85 79 158 153 161 166 5 20
-6 210 -22 377 -4 43 -2 57 8 57 8 0 80 -72 161 -160z m7743 -203 c158 -119
706 -561 728 -586 15 -17 17 -25 8 -44 -17 -37 -122 -157 -137 -157 -8 0 -89
56 -180 125 -91 69 -174 125 -185 125 -18 0 -138 -137 -219 -249 l-31 -45 27
-29 c16 -16 92 -83 171 -150 78 -67 142 -124 142 -128 0 -8 -75 -109 -118
-159 l-29 -34 -79 59 c-130 96 -695 554 -746 603 -27 26 -48 50 -48 54 0 9 96
127 122 151 11 9 26 17 32 17 7 0 81 -52 166 -115 85 -63 160 -115 166 -115
21 0 244 279 244 305 0 7 -67 69 -150 139 -82 70 -150 134 -150 142 0 29 121
174 144 174 8 0 63 -37 122 -83z m-1002 -942 c18 -18 60 -151 53 -169 -3 -6
-49 -33 -103 -60 -234 -116 -306 -286 -208 -491 35 -76 123 -168 189 -201 49
-23 64 -26 142 -23 106 5 160 28 273 119 41 33 82 60 92 60 16 0 128 -115 128
-133 0 -14 -109 -115 -176 -163 -119 -85 -277 -143 -391 -144 -211 -1 -428
170 -520 409 -38 97 -44 269 -13 361 30 89 64 143 140 223 107 114 212 177
377 226 1 1 9 -6 17 -14z m-4137 -594 c43 -16 104 -40 136 -55 l58 -25 -6
-118 c-3 -65 -10 -212 -15 -328 -13 -265 -38 -650 -46 -693 -5 -31 -8 -33 -32
-27 -51 13 -182 67 -196 80 -10 10 -16 57 -21 160 -6 119 -10 147 -24 154 -35
19 -224 81 -246 81 -24 0 -43 -19 -148 -150 -38 -48 -48 -55 -78 -54 -39 1
-191 63 -196 80 -6 17 576 800 665 897 32 34 52 34 149 -2z m2817 -243 c109
-167 314 -493 434 -693 63 -105 82 -143 74 -155 -11 -18 -143 -58 -195 -59
-45 -1 -49 3 -138 137 -34 50 -67 92 -74 92 -16 0 -192 -45 -257 -66 l-48 -16
0 -138 c0 -98 -4 -140 -12 -148 -16 -12 -202 -72 -225 -72 -15 0 -16 25 -10
295 9 361 26 785 36 839 6 40 9 42 71 64 82 29 198 61 228 61 18 1 40 -26 116
-141z m-1409 -39 c119 -22 234 -106 275 -202 60 -139 23 -320 -84 -415 -78
-68 -163 -96 -333 -107 -91 -6 -113 -10 -117 -24 -3 -9 -10 -77 -16 -151 -15
-198 -17 -209 -47 -216 -27 -7 -189 3 -204 12 -13 8 -11 155 6 509 16 334 33
584 41 597 8 12 412 10 479 -3z"/>
<path d="M6320 10948 c-18 -118 -20 -132 -44 -381 -13 -131 -22 -247 -19 -257
7 -26 54 -34 163 -28 109 7 161 30 227 102 58 63 92 151 100 257 10 139 -33
250 -122 311 -56 39 -155 68 -230 68 l-63 0 -12 -72z"/>
<path d="M3974 10612 c-80 -28 -107 -49 -100 -78 13 -52 99 -236 113 -241 33
-13 161 66 193 120 39 63 16 151 -49 194 -41 28 -87 29 -157 5z"/>
<path d="M8283 10457 c-10 -13 -36 -60 -57 -105 -46 -94 -44 -100 39 -138 53
-25 125 -31 169 -14 33 12 66 66 66 106 0 43 -63 112 -133 147 -31 15 -58 27
-61 27 -2 0 -13 -11 -23 -23z"/>
<path d="M8052 10033 c-57 -92 -102 -180 -102 -201 0 -15 15 -30 52 -51 107
-61 195 -62 253 -1 23 24 30 41 33 89 4 56 3 60 -34 101 -41 46 -133 110 -157
110 -8 0 -28 -21 -45 -47z"/>
<path d="M5745 9639 c-478 -18 -1039 -182 -1507 -440 -301 -165 -564 -364
-814 -613 -585 -586 -939 -1315 -1049 -2159 -18 -141 -21 -657 -4 -818 45
-444 207 -957 429 -1360 175 -317 353 -552 625 -824 334 -335 668 -568 1069
-746 551 -245 1042 -341 1631 -319 330 13 455 29 731 95 1040 249 1911 939
2399 1900 171 337 281 672 352 1080 28 158 28 166 28 570 0 403 -1 413 -28
566 -74 419 -183 749 -365 1103 -108 209 -187 338 -315 508 -571 763 -1391
1262 -2337 1423 -244 41 -450 49 -845 34z m520 -99 c327 -19 714 -107 1045
-240 124 -50 319 -137 347 -156 12 -8 66 -39 120 -70 299 -172 572 -392 832
-669 456 -486 777 -1140 890 -1812 38 -227 46 -326 46 -588 0 -418 -50 -731
-180 -1120 -407 -1223 -1438 -2128 -2700 -2369 -249 -47 -392 -60 -665 -60
-140 0 -300 5 -355 12 -650 79 -1231 301 -1723 659 -806 588 -1321 1463 -1447
2461 -23 177 -17 740 9 902 69 427 161 720 341 1085 113 230 259 460 411 650
110 137 417 446 544 547 481 381 1044 633 1644 733 263 44 510 54 841 35z"/>
<path d="M6720 8671 c-589 -488 -1093 -1022 -1407 -1491 -134 -202 -287 -489
-354 -670 -19 -49 -36 -90 -39 -90 -3 0 -17 22 -31 48 -30 54 -116 162 -129
162 -5 0 2 -33 16 -72 57 -168 86 -430 49 -444 -16 -7 -128 42 -176 77 -17 12
-32 19 -35 16 -7 -7 63 -98 103 -133 l35 -31 -58 -5 c-58 -6 -224 -55 -224
-67 0 -3 53 -5 117 -3 120 3 210 -13 206 -35 -1 -6 -74 -118 -161 -250 -131
-196 -391 -601 -491 -765 -21 -35 -21 -38 -4 -38 45 0 80 40 197 226 726 1150
1614 2332 2248 2990 146 152 386 388 399 392 19 7 6 23 -83 98 -51 42 -102 87
-114 99 l-21 22 -43 -36z"/>
<path d="M6800 8293 c-545 -557 -1129 -1288 -1742 -2179 -79 -115 -147 -214
-151 -221 -4 -6 6 -32 22 -58 16 -25 37 -73 47 -106 11 -37 21 -54 26 -47 13
22 8 101 -11 156 -10 28 -17 52 -17 52 1 0 44 -9 96 -20 236 -49 427 -10 557
113 54 51 64 73 20 44 -38 -25 -105 -39 -153 -31 -24 3 -44 9 -44 13 0 3 35
14 78 24 105 25 188 67 277 138 67 54 129 119 121 126 -2 2 -31 -10 -64 -27
-97 -48 -171 -63 -286 -57 -62 2 -122 12 -156 23 l-55 19 100 7 c411 29 744
267 1094 787 l43 63 -83 -6 -84 -5 56 18 c112 36 249 128 312 207 22 28 23 28
-50 9 -31 -8 -73 -15 -93 -15 -31 0 -28 3 33 24 37 13 90 39 117 56 65 42 174
159 244 263 58 85 69 114 39 102 -10 -4 -56 -9 -103 -11 l-85 -5 55 19 c76 26
127 53 191 103 68 54 249 232 249 245 0 12 -405 354 -418 354 -5 0 -87 -80
-182 -177z"/>
<path d="M8360 4686 l0 -205 -57 35 c-77 46 -123 57 -219 52 -144 -8 -263 -88
-330 -223 -120 -243 -26 -550 202 -661 51 -24 71 -28 149 -29 102 0 165 22
223 77 l32 32 0 -52 0 -52 130 0 130 0 0 615 0 615 -130 0 -130 0 0 -204z
m-85 -370 c17 -13 44 -48 60 -77 25 -46 29 -65 29 -129 0 -64 -4 -83 -28 -127
-68 -125 -206 -148 -305 -51 -45 44 -62 82 -68 149 -19 203 169 344 312 235z"/>
<path d="M3420 4240 l0 -580 135 0 135 0 0 225 0 225 220 0 220 0 0 -225 0
-225 135 0 135 0 0 580 0 580 -135 0 -135 0 0 -240 0 -240 -220 0 -220 0 0
240 0 240 -135 0 -135 0 0 -580z"/>
<path d="M4580 4705 l0 -115 160 0 160 0 0 -465 0 -465 135 0 135 0 0 465 0
465 163 2 162 3 3 113 3 112 -461 0 -460 0 0 -115z"/>
<path d="M5580 4705 l0 -115 160 0 160 0 0 -465 0 -465 135 0 135 0 0 465 0
465 160 0 160 0 0 115 0 115 -455 0 -455 0 0 -115z"/>
<path d="M6670 4240 l0 -580 135 0 135 0 0 158 0 159 143 7 c78 3 162 10 187
15 141 29 237 96 286 203 27 59 29 71 29 193 0 159 -16 213 -88 291 -101 111
-199 134 -568 134 l-259 0 0 -580z m572 317 c72 -42 97 -135 64 -230 -31 -86
-71 -104 -240 -113 l-126 -7 0 193 0 192 128 -4 c117 -3 132 -6 174 -31z"/>
<path d="M1302 7475 c-98 -30 -162 -119 -162 -224 0 -70 27 -126 89 -184 96
-90 220 -131 374 -125 90 3 108 7 150 31 60 36 103 93 118 161 33 148 -95 292
-303 341 -77 18 -208 18 -266 0z"/>
<path d="M1043 6060 c-56 -34 -68 -63 -68 -170 l0 -95 100 -3 c55 -2 128 0
162 3 57 6 62 8 68 34 3 16 1 59 -6 95 -18 107 -72 156 -171 156 -35 0 -64 -7
-85 -20z"/>
<path d="M4375 1783 c-42 -58 -92 -133 -112 -166 -34 -56 -35 -61 -19 -73 29
-21 164 -67 179 -61 8 3 17 27 21 59 10 81 20 348 13 348 -4 0 -40 -48 -82
-107z"/>
<path d="M7125 1729 c-3 -19 -5 -110 -3 -204 l3 -170 27 -3 c29 -3 153 32 174
49 11 9 8 21 -13 62 -20 41 -166 281 -179 296 -1 1 -5 -12 -9 -30z"/>
<path d="M5695 1660 c-12 -20 -28 -234 -21 -285 l8 -48 88 5 c108 7 146 25
178 88 18 35 22 57 19 97 -5 65 -28 100 -81 124 -54 24 -180 37 -191 19z"/>
</g>
</svg>
