<?xml version="1.0" standalone="no"?>
<!DOCTYPE svg PUBLIC "-//W3C//DTD SVG 20010904//EN"
 "http://www.w3.org/TR/2001/REC-SVG-20010904/DTD/svg10.dtd">
<svg version="1.0" xmlns="http://www.w3.org/2000/svg"
 width="100.000000pt" height="100.000000pt" viewBox="0 0 100.000000 100.000000"
 preserveAspectRatio="xMidYMid meet">
<metadata>
Created by potrace 1.16, written by Peter Selinger 2001-2019
</metadata>
<g transform="translate(0.000000,100.000000) scale(0.016667,-0.025000)"
fill="#000000" stroke="none">
<path d="M0 3045 l0 -954 89 45 c134 67 253 94 416 94 l132 0 6 98 c28 427
327 801 744 929 81 25 102 27 268 27 159 1 189 -2 260 -22 122 -35 288 -120
373 -192 61 -52 73 -58 78 -43 28 81 94 211 150 296 156 234 387 410 650 495
136 44 222 57 384 56 119 -1 165 -5 258 -27 443 -103 809 -461 926 -908 21
-79 30 -120 35 -161 1 -3 24 0 52 7 148 39 342 43 499 10 237 -50 434 -155
601 -321 l79 -78 0 802 0 802 -3000 0 -3000 0 0 -955z"/>
<path d="M1743 2325 c-137 -68 -164 -234 -57 -342 80 -80 206 -84 291 -10 149
131 54 377 -147 377 -20 0 -59 -11 -87 -25z m191 -41 c12 -12 13 -20 6 -35 -8
-14 -7 -25 5 -41 8 -13 15 -33 15 -45 0 -18 -6 -23 -25 -23 -16 0 -25 6 -25
15 0 51 -104 77 -134 33 -39 -55 -7 -129 56 -131 40 -1 66 15 79 50 8 23 42
32 53 14 3 -4 -3 -25 -14 -46 -14 -27 -17 -43 -10 -56 7 -13 6 -22 -6 -33 -18
-18 -17 -18 -38 -10 -9 3 -16 12 -16 18 0 8 -12 11 -35 8 -42 -5 -109 34 -127
73 -6 14 -19 25 -28 25 -10 0 -23 6 -29 14 -16 19 2 56 27 56 9 0 27 16 40 35
12 19 29 35 36 35 8 0 16 5 18 12 2 6 24 11 51 11 31 0 47 5 47 13 0 11 14 21
32 23 4 1 14 -6 22 -15z"/>
<path d="M4250 2282 c0 -5 -8 -9 -17 -7 -10 1 -12 0 -5 -2 6 -3 12 -14 12 -25
0 -11 5 -18 13 -15 6 2 20 0 29 -4 10 -6 19 -5 23 1 3 5 -6 12 -20 16 -27 7
-32 18 -13 30 7 5 8 2 3 -7 -6 -11 -5 -12 5 -2 11 10 16 8 24 -10 9 -17 22
-23 56 -25 35 -2 42 0 30 8 -12 9 -10 10 10 4 14 -4 34 -13 45 -22 12 -8 14
-12 5 -9 -13 4 -16 -3 -15 -33 0 -21 2 -37 5 -35 3 1 13 -5 22 -15 17 -16 17
-18 -5 -38 -27 -26 -97 -56 -97 -42 0 5 -7 6 -17 3 -11 -4 -14 -3 -9 6 4 7 16
9 27 6 20 -7 95 22 86 32 -3 2 -19 -3 -37 -12 -18 -9 -34 -14 -37 -12 -2 3 14
13 36 23 41 18 53 34 26 34 -8 0 -15 -4 -15 -9 0 -9 -54 -35 -66 -31 -4 1 -10
-4 -15 -11 -10 -17 -23 -4 -16 16 4 9 18 15 35 15 35 0 62 27 62 61 0 36 -18
49 -66 49 l-42 0 -12 -52 c-6 -29 -13 -63 -16 -75 -5 -19 -2 -23 15 -23 12 0
21 -4 21 -10 0 -5 -9 -10 -20 -10 -11 0 -20 -4 -20 -10 0 -14 -30 -12 -65 6
l-30 14 28 -5 c15 -3 27 -1 27 5 0 5 4 10 10 10 5 0 7 -7 3 -16 -4 -11 -2 -15
6 -13 7 3 12 8 12 12 -1 4 -1 14 -1 22 0 8 -7 15 -15 15 -16 0 -38 34 -28 44
4 4 8 17 10 29 2 18 1 19 -7 6 -16 -27 -20 -73 -8 -81 7 -4 9 -10 5 -15 -5 -4
-11 -2 -15 4 -7 11 -53 17 -100 14 -18 -1 -22 -5 -17 -20 3 -11 1 -22 -4 -26
-7 -4 -8 0 -4 10 5 15 3 15 -15 4 -16 -10 -23 -10 -35 -1 -14 12 -17 58 -5 78
3 5 5 28 3 51 -1 27 1 40 8 36 5 -3 8 -2 4 3 -3 5 17 7 46 5 46 -3 50 -2 38
13 -8 10 -9 16 -3 16 6 0 14 -5 18 -11 4 -8 9 -7 16 2 6 10 7 7 3 -8 -4 -14
-2 -23 4 -23 6 0 11 8 11 18 0 10 5 23 11 29 7 7 3 11 -15 11 -14 0 -26 -4
-26 -9 0 -5 -7 -6 -15 -3 -26 10 -119 -28 -152 -63 -38 -38 -39 -43 -17 -89
15 -32 34 -45 34 -24 0 6 -4 10 -10 10 -5 0 -10 8 -10 18 1 16 1 16 11 -1 6
-9 15 -15 21 -11 6 4 6 -1 -1 -14 -10 -18 -8 -24 11 -36 80 -51 285 -61 379
-19 67 30 99 66 99 112 0 50 -27 83 -91 110 -58 25 -159 40 -159 23z"/>
<path d="M4186 2225 c-7 -34 -8 -35 -29 -20 -12 8 -38 15 -59 15 -31 0 -38 -4
-38 -20 0 -11 -3 -20 -7 -20 -5 0 -8 -10 -8 -22 -1 -13 -4 -38 -8 -55 -5 -28
-4 -33 12 -33 10 0 21 9 24 20 4 14 14 20 33 20 15 0 36 8 47 18 19 16 20 16
14 0 -5 -13 -1 -18 13 -18 13 0 22 9 26 28 10 47 13 52 30 52 14 0 16 -7 11
-39 -3 -29 -1 -41 9 -45 18 -7 36 37 32 78 -2 26 -8 32 -33 36 -18 3 -30 11
-30 20 0 8 -7 16 -16 18 -12 2 -18 -7 -23 -33z"/>
<path d="M2715 2189 c-38 -11 -106 -26 -150 -35 -44 -8 -87 -19 -96 -24 -9 -5
-34 -12 -55 -16 -33 -6 -36 -8 -19 -16 17 -7 15 -8 -7 -5 -15 2 -32 0 -40 -4
-47 -29 208 -40 348 -16 78 14 136 36 149 57 3 5 15 10 27 10 17 0 18 3 9 14
-10 12 -7 18 19 31 38 20 34 31 -4 13 -17 -7 -30 -8 -34 -2 -12 16 -75 13
-147 -7z"/>
<path d="M2248 1387 c-81 -193 -151 -360 -154 -370 -6 -16 2 -17 102 -15 l108
3 25 63 24 62 141 0 142 0 24 -65 24 -65 112 0 112 0 -135 318 c-74 174 -144
341 -155 370 l-21 52 -101 0 -101 -1 -147 -352z m286 3 c20 -50 36 -92 36 -95
0 -3 -34 -5 -75 -5 -41 0 -75 4 -75 8 0 7 12 40 60 160 5 12 11 22 14 22 2 0
20 -41 40 -90z"/>
<path d="M1490 1365 l0 -365 283 0 283 0 1 90 1 90 -179 0 -179 0 0 275 0 275
-105 0 -105 0 0 -365z"/>
<path d="M2970 1365 l0 -365 106 0 106 0 -5 200 c-2 110 -2 200 2 200 3 0 46
-61 95 -136 l88 -137 94 144 94 144 0 -207 0 -208 105 0 105 0 -2 363 -3 362
-110 3 -110 2 -83 -135 c-46 -74 -87 -133 -91 -131 -4 3 -43 64 -87 135 l-79
130 -112 1 -113 0 0 -365z"/>
<path d="M3880 1365 l0 -365 105 0 105 0 0 104 0 103 108 5 c156 8 230 46 278
143 51 105 29 233 -54 307 -64 58 -114 68 -344 68 l-198 0 0 -365z m377 176
c57 -35 53 -125 -8 -156 -16 -9 -56 -15 -94 -15 l-65 0 0 95 0 95 68 0 c48 0
76 -5 99 -19z"/>
<path d="M5920 661 c-174 -177 -418 -298 -665 -330 -67 -9 -698 -11 -2510 -9
l-2420 4 -70 22 c-38 12 -112 42 -162 67 l-93 44 0 -229 0 -230 3000 0 3000 0
0 370 c0 204 -1 369 -2 368 -2 -1 -37 -36 -78 -77z"/>
</g>
</svg>
