<?xml version="1.0" standalone="no"?>
<!DOCTYPE svg PUBLIC "-//W3C//DTD SVG 20010904//EN"
 "http://www.w3.org/TR/2001/REC-SVG-20010904/DTD/svg10.dtd">
<svg version="1.0" xmlns="http://www.w3.org/2000/svg"
 width="100.000000pt" height="100.000000pt" viewBox="0 0 100.000000 100.000000"
 preserveAspectRatio="xMidYMid meet">
<metadata>
Created by potrace 1.16, written by Peter Selinger 2001-2019
</metadata>
<g transform="translate(0.000000,100.000000) scale(0.006954,-0.019011)"
fill="#000000" stroke="none">
<path d="M0 2630 l0 -2630 7190 0 7190 0 0 2630 0 2630 -7190 0 -7190 0 0
-2630z m12592 1836 c88 -31 137 -44 156 -40 23 5 34 0 58 -25 16 -17 34 -31
40 -31 6 0 37 12 68 26 56 26 76 25 76 -2 0 -8 7 -28 15 -44 13 -25 45 -41 87
-44 4 -1 14 -10 22 -21 13 -19 15 -19 33 -3 23 21 44 10 46 -25 2 -22 5 -25
29 -20 62 12 120 -43 87 -83 -10 -13 -10 -17 0 -23 9 -6 11 -23 6 -62 -5 -38
-2 -67 9 -99 9 -25 16 -62 16 -82 0 -33 -3 -38 -24 -38 -33 0 -50 -23 -36 -49
10 -20 13 -20 40 -6 40 20 40 20 40 -24 0 -85 -21 -197 -47 -244 -20 -39 -24
-57 -19 -88 3 -21 3 -39 -1 -39 -5 0 -30 8 -56 17 -59 21 -76 13 -98 -48 -13
-35 -14 -46 -4 -54 7 -5 15 -21 18 -34 5 -19 -5 -33 -54 -79 -33 -30 -67 -68
-75 -85 -15 -27 -14 -30 7 -53 l22 -24 -31 -11 c-20 -7 -34 -20 -38 -35 -15
-58 -73 -51 -99 13 l-16 38 -30 -48 c-22 -36 -35 -47 -54 -47 -14 0 -25 5 -25
10 0 6 -20 10 -45 10 -38 0 -45 -3 -45 -19 0 -16 -10 -20 -58 -26 l-59 -7 -14
-51 c-11 -44 -14 -48 -17 -24 -2 19 -9 27 -22 27 -23 0 -33 -18 -50 -88 -12
-53 -38 -82 -72 -82 -26 0 -41 35 -23 50 9 7 15 29 15 52 0 25 5 41 15 44 19
8 19 40 0 47 -20 8 -26 -4 -55 -102 -19 -63 -32 -89 -53 -105 -32 -23 -42 -17
-61 37 l-12 36 -31 -19 c-40 -24 -35 -51 14 -80 40 -23 40 -44 2 -72 -22 -16
-29 -17 -52 -7 -23 10 -30 9 -47 -6 -17 -16 -26 -17 -49 -8 -26 9 -29 8 -40
-23 -14 -39 -69 -90 -83 -76 -6 6 -8 37 -6 71 2 50 0 61 -13 61 -13 0 -15 -10
-11 -61 6 -83 -11 -98 -37 -33 -45 107 -67 127 -89 78 -11 -22 -18 -26 -47
-22 -19 2 -35 1 -35 -3 0 -4 23 -26 50 -49 57 -48 63 -74 26 -109 l-25 -23 -3
33 c-3 30 -7 34 -35 37 l-33 3 0 -49 c0 -41 -10 -69 -57 -158 -39 -76 -56
-118 -55 -143 1 -24 -4 -39 -18 -48 -17 -12 -18 -17 -6 -58 8 -24 26 -65 40
-91 14 -25 26 -57 26 -70 0 -14 6 -24 14 -24 8 0 18 -9 21 -20 8 -26 22 -25
31 3 8 27 22 37 52 37 30 0 52 -51 52 -119 0 -67 -30 -203 -48 -217 -25 -18 3
-111 45 -156 l35 -36 -10 -88 c-6 -49 -15 -90 -21 -92 -6 -2 -11 -17 -11 -33
0 -39 -39 -66 -70 -49 -16 9 -21 18 -17 36 5 26 -7 32 -20 12 -4 -7 -8 -48 -9
-91 0 -42 -4 -80 -7 -84 -4 -3 -31 -8 -61 -11 -65 -5 -89 13 -106 80 -19 78
-25 93 -43 96 -13 3 -17 -4 -17 -31 0 -19 -7 -40 -15 -47 -13 -11 -21 -6 -53
28 -30 32 -47 41 -86 47 -43 7 -50 11 -63 43 -9 22 -13 61 -12 111 2 50 -2 83
-11 97 -11 18 -10 30 9 84 23 66 22 95 -6 150 -13 28 -13 35 4 75 10 25 26 48
36 51 15 5 17 13 12 52 -4 26 -15 59 -25 73 -10 15 -22 44 -25 65 -4 22 -14
60 -22 85 -11 37 -12 55 -3 88 8 30 8 46 -1 63 -8 15 -9 47 -4 107 8 87 9 173
4 311 -2 41 4 110 13 153 11 56 13 88 6 115 -6 25 -6 47 1 65 10 25 15 28 40
22 24 -5 33 0 60 31 36 40 36 67 2 115 -16 22 -17 28 -5 50 26 47 9 109 -31
109 -29 0 -24 21 21 92 62 96 84 145 84 190 0 39 -1 39 90 51 16 3 19 39 5 70
-5 12 -3 17 9 17 11 0 16 9 16 29 0 22 6 31 28 39 61 23 83 23 136 -1 l53 -24
8 -84 c9 -97 9 -107 0 -214 -6 -63 -4 -88 9 -119 18 -42 14 -56 -15 -56 -22 0
-25 -13 -5 -29 12 -10 15 -39 18 -166 0 -37 20 -75 38 -75 10 0 38 16 62 35
62 49 95 66 135 68 26 2 49 14 90 50 45 39 61 47 93 47 26 0 48 8 67 24 15 13
45 26 65 30 22 4 72 32 125 71 154 113 236 142 282 101 31 -28 53 -17 67 36 6
26 21 62 33 81 20 32 72 67 102 67 8 0 6 7 -6 20 -17 18 -17 21 1 51 23 40 37
39 44 -1 7 -41 24 -39 28 4 2 27 -2 37 -17 46 -17 8 -21 21 -21 56 0 38 3 46
25 54 26 10 31 25 16 49 -8 12 -14 13 -37 3 -14 -7 -29 -10 -32 -7 -3 2 -6 33
-6 68 -1 52 -3 61 -14 50 -7 -7 -20 -13 -28 -13 -8 0 -14 -6 -14 -14 0 -8 -5
-18 -10 -21 -19 -12 -40 16 -40 51 0 24 -5 34 -15 34 -8 0 -50 18 -93 41 -49
25 -88 39 -103 37 -23 -4 -22 -6 24 -52 27 -26 47 -49 45 -50 -1 -2 -29 -8
-61 -14 -76 -15 -104 -4 -113 43 -6 33 -9 35 -45 35 -34 0 -42 5 -66 41 l-27
41 -13 -26 c-16 -31 -43 -40 -77 -25 -20 10 -29 10 -38 1 -20 -20 -80 -14
-123 13 -50 31 -56 31 -121 -1 -53 -26 -54 -26 -220 -19 l-166 8 -46 34 -45
35 -20 -26 c-29 -40 -71 -57 -189 -77 -226 -39 -266 -98 -179 -262 39 -74 51
-117 33 -117 -4 0 -13 5 -19 11 -8 8 -15 4 -27 -12 -14 -20 -14 -25 -1 -39 21
-24 18 -51 -6 -57 -18 -5 -20 -11 -14 -42 9 -46 12 -51 35 -51 13 0 17 5 14
15 -4 9 6 22 28 35 57 34 59 31 53 -77 -6 -93 -15 -123 -38 -123 -5 0 -40 -25
-77 -55 -98 -80 -110 -83 -210 -44 -74 28 -84 30 -92 15 -14 -24 -46 -20 -50
7 -2 14 -16 29 -40 40 -41 20 -47 41 -28 93 14 36 -2 54 -28 31 -18 -16 -42
-23 -42 -12 0 3 9 22 20 42 29 55 27 146 -5 214 -21 47 -24 63 -20 142 3 50 6
92 8 94 2 2 10 -3 17 -12 22 -27 31 -16 25 33 -7 57 8 87 29 60 21 -28 43 -21
56 17 6 19 20 40 30 45 24 13 73 13 86 0 16 -16 54 31 104 133 42 86 47 92 78
95 18 2 39 -1 45 -6 7 -6 24 -8 40 -5 20 4 27 11 27 28 0 21 5 23 84 30 47 4
94 4 105 0 15 -4 20 -1 23 17 2 13 15 28 31 36 17 8 35 29 43 49 13 31 19 35
45 31 26 -4 29 -2 29 24 0 35 30 38 60 6 11 -12 20 -17 20 -10 0 7 16 9 50 5
42 -5 50 -3 50 10 0 19 39 31 75 25 16 -3 30 1 41 13 23 26 42 24 56 -6 12
-28 19 -30 35 -14 8 8 26 4 67 -19 l55 -29 23 26 c14 14 30 39 36 54 9 21 18
28 35 25 29 -4 34 -41 11 -83 -17 -31 -17 -35 -1 -59 13 -20 26 -26 52 -26 19
0 35 -2 35 -5 0 -2 -9 -19 -20 -37 -30 -49 -24 -56 15 -18 19 19 35 38 35 44
0 17 -53 66 -72 66 -10 0 -18 7 -18 15 0 9 9 15 23 15 30 0 48 15 77 64 l23
39 22 -26 c26 -34 34 -34 81 4 37 30 42 31 104 26 40 -4 114 -23 192 -51z
m-11262 -26 l11 -21 26 21 c37 29 135 28 184 -3 128 -78 147 -86 211 -97 80
-14 82 -17 103 -127 21 -109 20 -120 -13 -137 -15 -8 -33 -26 -40 -41 -10 -22
-15 -24 -32 -15 -24 13 -25 28 -5 66 20 39 19 47 -10 74 -23 22 -25 22 -31 4
-20 -58 -48 -102 -79 -122 -56 -36 -51 -52 54 -157 l71 -70 6 -215 7 -215 -26
-28 c-21 -22 -27 -41 -32 -100 -4 -39 -8 -83 -11 -97 -2 -13 3 -31 10 -40 15
-17 41 -168 31 -178 -3 -4 -32 -7 -64 -7 -73 0 -111 -23 -111 -66 0 -24 13
-45 59 -93 58 -60 87 -108 75 -127 -9 -16 -24 -10 -53 22 -17 18 -36 29 -47
27 -10 -2 -38 -29 -62 -60 -32 -42 -42 -62 -37 -77 6 -19 14 -21 98 -21 74 -1
89 -3 76 -13 -8 -7 -23 -23 -32 -38 -21 -32 -15 -56 47 -172 50 -96 59 -153
31 -206 -15 -31 -33 -41 -71 -41 -24 0 -24 0 -5 -19 11 -11 39 -54 62 -96 27
-50 50 -80 66 -86 21 -8 23 -12 12 -25 -7 -9 -29 -23 -48 -32 -52 -24 -53 -55
-4 -80 48 -25 174 -45 205 -33 42 15 394 24 432 10 27 -10 51 -10 118 1 45 7
115 15 153 17 95 5 112 9 118 33 8 33 96 28 176 -10 45 -22 107 -38 210 -56
219 -38 195 -19 202 -159 6 -121 14 -165 30 -165 5 0 11 12 15 28 10 47 23 72
38 72 26 0 43 -28 50 -84 6 -43 4 -61 -11 -86 -66 -115 -67 -127 -18 -229 19
-40 33 -77 29 -82 -11 -18 -63 -9 -93 17 -17 14 -55 67 -85 119 -55 92 -82
118 -98 93 -4 -7 -18 -31 -30 -52 -24 -42 -48 -58 -48 -33 0 22 -88 97 -150
129 -81 42 -110 15 -75 -69 8 -19 15 -55 15 -78 0 -70 -22 -78 -194 -73 l-141
5 -133 51 c-74 29 -179 64 -235 78 -106 27 -137 39 -204 85 -23 16 -44 29 -47
29 -11 0 -6 -36 6 -48 9 -9 5 -19 -18 -43 -51 -55 -80 -62 -294 -69 -192 -6
-196 -6 -247 -35 -50 -28 -52 -29 -71 -12 -19 17 -19 20 -4 59 16 40 16 41 -8
60 l-25 20 -32 -39 c-32 -37 -33 -38 -60 -23 -56 31 -90 216 -59 319 20 69 20
124 0 163 -13 25 -18 85 -24 317 l-8 286 28 68 c27 65 28 69 14 120 -49 183
-90 512 -82 660 4 68 13 103 51 199 49 122 62 202 38 246 -14 26 -14 100 0
140 9 28 5 41 -40 134 -60 122 -77 206 -68 345 7 96 24 153 58 190 26 26 66
38 84 23 11 -9 20 -2 44 31 17 23 31 46 31 51 0 16 19 8 30 -12z m4958 -155
c11 -14 23 -45 26 -70 4 -24 11 -47 17 -50 5 -4 9 -53 9 -110 l0 -103 36 -32
c64 -55 114 -27 114 66 0 43 19 70 43 61 7 -2 23 -42 36 -87 13 -45 35 -97 48
-117 27 -39 30 -31 -50 -126 -61 -73 -46 -95 90 -132 1 -1 5 -20 9 -43 6 -37
4 -42 -12 -42 -31 0 -62 -27 -69 -60 -7 -33 -19 -37 -41 -15 -21 20 -40 19
-64 -5 -32 -32 -26 -50 12 -39 18 5 48 9 65 9 38 0 42 -18 19 -74 -14 -33 -13
-35 20 -67 41 -40 44 -77 12 -144 -22 -45 -32 -53 -43 -35 -13 21 -25 9 -25
-25 0 -30 5 -37 33 -48 17 -8 38 -21 46 -31 12 -14 9 -21 -22 -51 -50 -48 -66
-104 -44 -151 25 -52 21 -78 -18 -115 -43 -41 -46 -79 -9 -151 24 -47 26 -58
19 -122 -6 -63 -26 -188 -40 -253 -4 -18 -12 -23 -35 -23 l-30 0 0 -75 c0 -69
2 -78 26 -98 28 -24 48 -93 38 -132 -7 -30 -20 -32 -29 -5 -8 26 -25 26 -25 1
0 -37 20 -71 46 -81 l26 -10 -5 -183 c-5 -203 -20 -277 -68 -328 -36 -39 -76
-40 -81 -2 -3 27 -4 26 -27 -17 -13 -25 -25 -47 -27 -48 -1 -2 -33 11 -71 30
-56 27 -79 33 -134 33 -57 0 -73 -4 -118 -33 -29 -17 -54 -32 -57 -32 -2 0 -4
26 -4 58 0 61 -3 66 -88 137 -22 18 -23 18 -53 -11 -32 -30 -51 -28 -73 10 -9
14 -7 21 12 33 19 13 22 24 22 74 0 59 0 59 -30 59 -25 0 -30 4 -30 24 0 24
-2 24 -55 19 l-55 -6 -15 37 c-8 20 -20 36 -25 36 -15 0 -30 -35 -37 -85 -6
-49 -23 -55 -34 -14 -4 13 -7 83 -8 156 l-1 132 -38 11 c-42 11 -65 31 -81 70
-8 20 -10 8 -10 -56 -1 -61 -5 -85 -17 -95 -18 -15 -20 -13 -60 65 -45 87 -22
174 73 278 30 31 26 52 -17 93 l-30 29 0 -71 c0 -62 -3 -72 -19 -78 -11 -3
-23 -14 -26 -24 -3 -10 -14 -26 -25 -36 -19 -17 -20 -17 -39 6 -18 21 -20 39
-21 152 l0 127 -55 0 c-73 0 -100 -24 -90 -81 7 -39 7 -39 -20 -29 -60 23 -67
30 -61 62 3 17 26 56 51 86 25 30 44 60 42 66 -2 6 -40 29 -85 52 l-82 40 0
-48 c0 -26 -3 -48 -8 -48 -4 0 -45 38 -92 85 -83 84 -84 84 -105 66 -11 -10
-30 -22 -42 -25 -31 -10 -128 -299 -119 -354 4 -20 9 -63 12 -95 6 -54 4 -61
-24 -96 -25 -31 -30 -46 -27 -72 3 -19 14 -107 26 -196 16 -127 20 -199 17
-335 -4 -193 -12 -220 -81 -286 -42 -40 -58 -27 -28 22 29 46 26 62 -10 75
-52 18 -56 15 -63 -51 -10 -89 -29 -126 -70 -143 -64 -27 -67 -25 -134 109
-74 145 -87 218 -58 318 23 80 20 147 -13 278 -41 166 -46 223 -25 306 14 57
16 95 11 219 -8 204 -34 400 -62 468 -5 13 -2 17 14 17 26 0 26 7 1 61 -28 62
-26 97 5 109 33 12 33 46 0 90 -29 40 -32 79 -9 157 17 58 12 103 -10 103 -28
0 -66 48 -66 83 0 18 -9 67 -19 108 -17 66 -26 141 -22 191 0 10 16 24 36 32
39 17 43 34 19 76 -16 27 -16 30 34 134 28 58 55 106 61 106 6 0 18 -12 28
-27 10 -16 22 -31 28 -35 16 -12 66 2 110 30 25 16 59 27 91 30 l50 4 -4 -36
c-4 -31 1 -40 37 -72 42 -38 51 -67 31 -104 -9 -17 -7 -17 20 -7 38 15 48 5
64 -64 10 -50 15 -56 59 -79 26 -14 54 -36 63 -49 26 -37 43 -105 45 -182 2
-63 4 -70 16 -54 7 11 13 29 13 41 0 38 11 54 37 54 20 0 29 -10 50 -56 14
-32 31 -78 37 -103 11 -42 15 -46 52 -53 76 -15 84 -19 119 -49 34 -30 46 -71
25 -84 -5 -3 -10 -15 -10 -26 0 -15 7 -19 34 -19 53 0 78 -27 87 -95 11 -84
26 -115 56 -115 38 0 76 -25 127 -81 56 -62 134 -215 145 -284 6 -36 10 -45
16 -32 12 27 31 20 70 -27 45 -55 122 -189 130 -227 4 -19 11 -26 21 -22 30
11 67 -10 129 -75 35 -36 67 -63 71 -60 3 4 3 34 -1 68 -5 47 -12 63 -26 68
-18 7 -18 8 1 48 12 23 36 59 55 81 33 39 34 41 39 159 3 65 6 135 6 154 0 19
1 96 2 170 4 225 3 333 -2 375 l-5 40 37 -1 c45 -1 46 0 60 133 l12 102 -48
51 c-41 44 -47 55 -44 88 2 29 10 41 35 57 18 11 36 30 39 43 5 16 14 22 35
22 l29 0 -3 219 c-1 165 1 223 10 232 18 18 40 -14 49 -68 4 -27 12 -43 20
-43 19 0 17 30 -6 125 -42 169 -17 232 92 234 28 1 41 -5 56 -24z m3132 -182
c22 -99 46 -163 60 -163 4 0 23 34 41 75 24 56 37 75 52 75 22 0 192 -87 208
-106 5 -6 28 -72 51 -145 29 -98 41 -153 42 -204 l1 -70 -45 -14 c-25 -7 -61
-26 -81 -42 l-37 -28 -7 46 c-4 25 -10 55 -14 66 -7 18 -9 18 -44 -13 -23 -20
-44 -30 -56 -27 -16 4 -19 -3 -24 -57 -3 -38 -1 -66 6 -74 14 -17 67 -10 179
24 45 13 102 24 126 24 l45 0 -7 -32 c-7 -37 -23 -58 -43 -58 -11 0 -13 -5 -7
-17 4 -10 10 -80 12 -155 4 -127 2 -139 -17 -167 -26 -36 -26 -42 0 -75 18
-23 20 -35 14 -81 -13 -107 27 -213 93 -246 30 -15 31 -17 11 -22 -20 -5 -21
-11 -17 -61 4 -44 13 -68 47 -118 33 -49 41 -68 35 -88 -4 -14 -9 -68 -11
-121 -4 -91 -6 -97 -30 -110 -24 -13 -25 -17 -21 -79 4 -56 15 -86 74 -204 60
-121 69 -146 72 -205 4 -64 3 -67 -28 -94 -17 -16 -30 -36 -28 -45 2 -9 26
-28 53 -42 39 -20 51 -31 53 -52 3 -23 -3 -32 -33 -49 -36 -22 -37 -23 -30
-68 4 -25 20 -70 36 -98 33 -60 36 -79 12 -105 -22 -24 -26 -23 -121 17 -45
19 -89 32 -97 28 -9 -3 -22 -18 -31 -34 -8 -16 -17 -29 -20 -29 -2 0 -56 -12
-119 -26 -63 -14 -119 -23 -125 -19 -5 3 -15 24 -21 45 -7 24 -29 56 -56 80
-36 34 -43 47 -43 79 0 27 7 44 25 61 39 37 34 81 -12 111 -34 22 -38 29 -37
64 1 22 8 59 15 82 11 36 11 44 -5 65 -9 12 -27 37 -40 55 -29 40 -71 167 -92
279 -10 54 -18 169 -21 294 -4 154 -9 207 -19 218 -25 25 -62 96 -84 164 l-22
67 -52 -29 c-28 -16 -52 -33 -54 -38 -6 -20 20 -63 44 -72 24 -10 25 -12 11
-28 -8 -9 -22 -34 -30 -54 -13 -30 -21 -38 -41 -38 -32 0 -50 -32 -42 -75 l7
-33 -58 -13 c-32 -7 -82 -13 -110 -14 -73 0 -71 -26 5 -64 40 -20 42 -24 42
-66 0 -34 -13 -68 -56 -150 -57 -110 -60 -127 -24 -160 34 -31 26 -110 -24
-250 l-43 -120 -36 3 c-90 8 -160 -79 -207 -260 l-23 -88 -34 30 c-18 17 -37
30 -42 30 -5 0 -31 -18 -59 -40 -50 -40 -102 -54 -102 -26 0 8 -24 42 -52 76
-52 60 -54 62 -94 57 -23 -2 -75 -20 -115 -40 -77 -37 -89 -36 -89 9 0 26 15
40 53 49 28 7 28 9 22 59 -11 85 -25 127 -66 195 -21 36 -39 73 -39 83 0 9 13
38 30 64 16 26 27 51 24 55 -3 5 -33 9 -67 9 -39 1 -69 6 -81 15 -11 8 -30 15
-42 15 -28 0 -46 23 -42 52 2 18 19 29 80 53 131 51 129 62 -22 120 -92 36
-151 78 -133 96 5 5 24 4 43 -1 59 -17 60 -16 60 58 0 49 -5 76 -20 100 -11
18 -20 35 -20 37 0 3 23 5 52 5 57 0 55 8 -8 33 -25 10 -56 13 -81 10 -36 -5
-42 -9 -51 -42 -6 -20 -20 -108 -32 -196 -11 -88 -23 -175 -26 -193 -4 -28
-13 -36 -62 -60 -42 -20 -58 -33 -60 -51 -6 -41 6 -67 40 -82 49 -21 49 -54
-2 -106 -44 -47 -51 -82 -24 -122 28 -40 13 -98 -75 -279 -88 -183 -96 -219
-59 -259 15 -16 19 -27 12 -31 -19 -12 -34 -49 -34 -84 0 -41 -20 -82 -43 -86
-16 -3 -58 26 -144 102 -31 28 -47 52 -56 83 -12 47 -18 51 -37 28 -17 -21
-33 -19 -56 6 -16 18 -19 37 -19 133 l0 111 57 143 c31 79 60 164 64 188 l6
44 45 0 46 0 -5 138 c-5 125 3 247 18 295 5 16 8 17 28 4 23 -15 76 -12 76 4
0 5 -5 28 -11 51 -10 39 -9 50 15 105 30 72 32 131 12 283 -14 97 -6 248 24
508 15 124 71 363 94 397 l19 29 18 -23 c10 -12 21 -39 24 -59 12 -75 26 -79
20 -7 -19 238 -18 298 5 365 48 144 98 188 133 118 15 -32 16 -32 16 -7 1 14
-6 49 -15 78 -19 65 -14 81 26 81 35 0 94 22 105 40 11 18 -14 30 -67 30 -46
0 -48 1 -48 28 0 38 17 52 62 52 35 0 38 2 48 41 l11 42 48 -6 c32 -4 57 -1
76 9 15 8 30 13 32 11 2 -2 10 -29 18 -59 7 -30 39 -106 70 -169 l57 -114 -7
-120 c-13 -206 -10 -217 65 -299 l38 -41 4 -150 c4 -158 14 -197 58 -228 12
-9 18 -20 14 -30 -8 -21 14 -337 32 -472 22 -160 52 -307 80 -397 22 -68 28
-78 49 -78 43 0 108 104 181 289 18 46 56 118 83 160 48 72 51 82 66 185 35
253 99 389 185 398 23 3 25 0 22 -32 -2 -19 -8 -43 -13 -53 -10 -18 12 -32 76
-46 19 -4 31 -14 33 -26 8 -57 12 -63 46 -69 18 -4 41 -15 51 -26 10 -11 26
-20 37 -20 16 0 18 10 18 124 0 100 -3 126 -16 137 -20 17 -44 65 -84 167 -17
45 -33 82 -36 82 -2 0 -22 -11 -44 -25 -71 -45 -109 -30 -117 49 -5 42 -5 43
28 50 48 9 69 33 69 78 0 31 3 38 20 38 17 0 20 -7 20 -46 0 -44 1 -45 28 -42
37 4 38 21 17 201 -15 126 -16 158 -6 220 12 70 15 74 76 132 38 37 74 84 93
121 41 80 78 124 107 124 20 0 25 -9 45 -97z"/>
<path d="M7880 2110 c58 -69 199 -200 216 -200 21 0 17 21 -14 71 -44 69 -145
150 -211 169 l-32 9 41 -49z"/>
</g>
</svg>
