<?xml version="1.0" standalone="no"?>
<!DOCTYPE svg PUBLIC "-//W3C//DTD SVG 20010904//EN"
 "http://www.w3.org/TR/2001/REC-SVG-20010904/DTD/svg10.dtd">
<svg version="1.0" xmlns="http://www.w3.org/2000/svg"
 width="180.000000pt" height="180.000000pt" viewBox="0 0 180.000000 180.000000"
 preserveAspectRatio="xMidYMid meet">
<metadata>
Created by potrace 1.16, written by Peter Selinger 2001-2019
</metadata>
<g transform="translate(0.000000,180.000000) scale(0.153846,-0.137405)"
fill="#000000" stroke="none">
<path d="M515 1263 c-92 -48 -405 -230 -434 -251 -58 -43 -61 -62 -61 -357 0
-278 4 -310 46 -347 18 -16 187 -114 384 -225 107 -59 146 -66 209 -33 77 39
427 242 445 258 42 37 46 69 46 347 0 278 -4 310 -46 347 -18 16 -368 219
-445 258 -46 24 -103 25 -144 3z m0 -409 c16 -22 39 -54 51 -69 l20 -29 34 50
c61 90 66 94 136 94 62 0 62 0 68 -32 4 -18 9 -129 13 -245 l6 -213 -67 0
c-77 0 -73 -11 -51 145 17 118 19 191 5 200 -5 3 -10 5 -10 3 0 -2 -22 -57
-48 -122 l-48 -119 -39 0 -39 0 -49 121 c-27 67 -53 119 -58 116 -11 -7 -11
-79 1 -169 5 -38 13 -94 16 -122 l7 -53 -68 0 -68 0 6 213 c4 116 9 227 13
245 l6 33 66 -3 c64 -3 67 -4 97 -44z"/>
</g>
</svg>
