<?xml version="1.0" standalone="no"?>
<!DOCTYPE svg PUBLIC "-//W3C//DTD SVG 20010904//EN"
 "http://www.w3.org/TR/2001/REC-SVG-20010904/DTD/svg10.dtd">
<svg version="1.0" xmlns="http://www.w3.org/2000/svg"
 width="222.000000pt" height="227.000000pt" viewBox="0 0 222.000000 227.000000"
 preserveAspectRatio="xMidYMid meet">
<metadata>
Created by potrace 1.16, written by Peter Selinger 2001-2019
</metadata>
<g transform="translate(0.000000,227.000000) scale(0.100000,-0.100000)"
fill="#000000" stroke="none">
<path d="M150 2266 c0 -2 28 -24 63 -49 128 -92 308 -305 430 -509 61 -102
140 -265 135 -278 -2 -4 -88 17 -193 46 -194 55 -528 134 -562 134 -10 0 23
-22 74 -49 156 -83 324 -224 453 -380 l45 -54 -80 6 c-44 4 -154 10 -245 12
l-165 5 70 -20 c83 -25 244 -102 335 -160 96 -62 227 -169 296 -241 54 -57 62
-72 78 -134 9 -38 39 -115 66 -170 174 -354 453 -492 784 -388 105 33 120 41
209 113 145 116 254 305 273 470 8 69 -10 85 -21 19 -4 -22 -24 -75 -46 -118
-69 -138 -192 -236 -336 -266 l-68 -15 -70 35 c-84 41 -161 116 -204 199 -28
53 -31 66 -31 156 0 230 66 397 192 487 54 39 140 72 209 80 47 6 49 5 107
-51 32 -31 61 -53 65 -50 3 3 -1 25 -10 47 -8 23 -21 78 -28 122 -18 117 -47
175 -119 242 -89 83 -165 115 -285 121 -77 4 -114 0 -181 -17 -46 -11 -90 -21
-98 -21 -19 0 -143 74 -512 303 -496 309 -630 388 -630 373z"/>
</g>
</svg>
