<?xml version="1.0" standalone="no"?>
<!DOCTYPE svg PUBLIC "-//W3C//DTD SVG 20010904//EN"
 "http://www.w3.org/TR/2001/REC-SVG-20010904/DTD/svg10.dtd">
<svg version="1.0" xmlns="http://www.w3.org/2000/svg"
 width="384.000000pt" height="334.000000pt" viewBox="0 0 384.000000 334.000000"
 preserveAspectRatio="xMidYMid meet">
<metadata>
Created by potrace 1.16, written by Peter Selinger 2001-2019
</metadata>
<g transform="translate(0.000000,334.000000) scale(0.100000,-0.100000)"
fill="#000000" stroke="none">
<path d="M1040 3321 c-75 -15 -95 -37 -183 -191 -36 -63 -89 -155 -117 -205
-29 -49 -103 -178 -165 -285 -61 -107 -154 -267 -205 -355 -311 -534 -320
-551 -320 -605 0 -55 -15 -27 355 -665 70 -121 139 -240 153 -265 14 -25 59
-103 100 -175 286 -496 285 -495 335 -523 30 -16 94 -17 927 -17 833 0 897 1
927 17 39 22 65 56 135 178 30 52 104 181 165 285 60 105 153 264 205 355 133
230 190 329 303 524 118 205 134 240 135 289 0 51 6 39 -285 542 -29 50 -95
164 -147 255 -52 91 -136 235 -185 320 -49 85 -127 220 -173 300 -91 158 -110
184 -155 208 -27 15 -111 17 -900 18 -478 1 -886 -1 -905 -5z m1718 -491 c104
-179 586 -1014 631 -1092 l32 -58 -49 -87 c-28 -49 -82 -144 -122 -213 -40
-69 -132 -228 -205 -355 -136 -237 -305 -527 -349 -602 l-26 -43 -752 0 -753
0 -34 63 c-19 34 -64 114 -102 177 -37 63 -141 243 -231 400 -90 157 -213 369
-272 472 l-108 187 33 58 c18 32 96 168 174 303 200 344 395 684 474 822 l66
117 754 -2 755 -2 84 -145z"/>
<path d="M860 2035 c-91 -29 -159 -114 -160 -198 0 -90 56 -150 204 -217 102
-46 124 -70 110 -124 -14 -56 -124 -74 -231 -36 -31 11 -58 19 -59 17 -1 -1
-9 -29 -18 -62 -12 -46 -12 -61 -3 -67 25 -16 84 -29 160 -35 140 -11 258 40
301 131 34 72 13 178 -46 233 -12 12 -71 44 -130 72 -79 37 -111 57 -120 76
-15 33 2 72 38 85 37 15 125 12 173 -4 l41 -15 15 51 c8 29 15 57 15 64 0 35
-208 56 -290 29z"/>
<path d="M2075 2037 c-22 -8 -53 -21 -70 -30 -192 -102 -237 -424 -83 -592 69
-76 128 -100 248 -100 88 0 101 3 162 33 69 34 109 74 146 147 48 95 53 239
11 349 -26 70 -98 148 -164 177 -61 28 -190 35 -250 16z m193 -143 c98 -75
110 -307 21 -409 -35 -40 -94 -60 -146 -50 -48 9 -108 67 -127 122 -18 54 -21
165 -5 227 13 52 61 113 103 132 43 20 111 10 154 -22z"/>
<path d="M2745 2041 c-49 -4 -96 -10 -102 -14 -10 -6 -13 -89 -13 -358 l0
-349 80 0 80 0 0 130 0 130 68 0 c172 0 277 79 289 220 5 51 2 67 -22 115 -52
107 -156 141 -380 126z m197 -132 c29 -16 48 -52 48 -94 0 -74 -53 -115 -150
-115 l-50 0 0 109 0 110 28 4 c34 5 101 -2 124 -14z"/>
<path d="M1250 1975 l0 -65 95 0 95 0 0 -295 0 -295 80 0 80 0 0 295 0 295
100 0 100 0 0 65 0 65 -275 0 -275 0 0 -65z"/>
</g>
</svg>
