<?xml version="1.0" standalone="no"?>
<!DOCTYPE svg PUBLIC "-//W3C//DTD SVG 20010904//EN"
 "http://www.w3.org/TR/2001/REC-SVG-20010904/DTD/svg10.dtd">
<svg version="1.0" xmlns="http://www.w3.org/2000/svg"
 width="200.000000pt" height="200.000000pt" viewBox="0 0 200.000000 200.000000"
 preserveAspectRatio="xMidYMid meet">
<metadata>
Created by potrace 1.16, written by Peter Selinger 2001-2019
</metadata>
<g transform="translate(0.000000,200.000000) scale(0.100000,-0.100000)"
fill="#000000" stroke="none">
<path d="M0 1230 l0 -770 174 0 c142 0 177 3 190 15 8 8 31 15 50 15 l35 0
-39 63 c-22 34 -40 67 -40 74 0 6 -6 13 -12 16 -9 2 -13 27 -12 78 0 75 9 98
87 211 9 13 8 25 -1 51 -15 42 -16 131 -1 160 16 31 71 87 85 87 7 0 14 5 16
12 3 8 33 14 81 16 42 2 74 8 72 13 -3 4 2 31 11 58 17 54 13 93 -11 118 -11
11 -15 41 -15 119 0 90 3 113 24 159 29 63 76 112 137 145 35 19 63 24 144 28
141 6 173 -5 251 -84 35 -36 67 -77 71 -92 3 -15 11 -30 17 -34 7 -5 10 -45
10 -111 -2 -94 -4 -108 -29 -146 -25 -41 -26 -44 -11 -76 9 -18 16 -46 16 -62
l0 -28 78 0 c92 0 129 -18 173 -84 25 -38 29 -54 29 -113 0 -39 4 -68 10 -68
6 0 10 5 10 10 0 15 38 12 65 -6 21 -14 25 -24 25 -68 0 -83 -45 -135 -117
-136 l-43 0 0 -49 c0 -44 3 -49 25 -55 15 -4 31 -18 38 -34 6 -15 16 -30 22
-34 5 -4 10 -43 10 -88 l-1 -80 188 0 188 0 0 770 0 770 -1000 0 -1000 0 0
-770z"/>
<path d="M917 1840 c-72 -19 -128 -64 -164 -134 -40 -79 -44 -204 -7 -241 9
-9 18 -33 21 -55 5 -34 9 -40 30 -40 31 0 59 -15 67 -35 4 -13 2 -14 -14 -5
-35 19 -78 12 -96 -15 -14 -22 -15 -31 -4 -71 7 -26 24 -59 38 -76 13 -16 23
-30 21 -31 -2 -1 -14 -8 -26 -14 -18 -10 -24 -10 -32 0 -63 79 -68 82 -118 81
-57 0 -114 -34 -144 -83 -25 -41 -24 -60 7 -125 24 -52 25 -56 9 -72 -19 -20
-61 -84 -87 -134 -30 -58 -24 -90 42 -201 57 -96 62 -113 46 -151 -11 -24 -66
-45 -76 -28 -5 7 -15 10 -25 6 -17 -6 -17 -8 1 -27 18 -21 33 -28 83 -44 16
-5 21 -4 17 4 -4 6 0 11 9 11 9 0 25 9 37 20 29 26 51 25 96 -5 20 -14 47 -25
60 -25 13 0 20 -4 17 -10 -3 -5 -3 -10 2 -10 11 0 40 20 29 20 -5 0 -3 6 3 14
17 20 30 101 19 120 -5 9 -16 16 -25 16 -12 0 -14 -7 -9 -31 3 -18 1 -38 -5
-45 -17 -21 -57 -17 -64 6 -3 11 -10 20 -15 20 -16 0 8 58 52 127 51 78 88
148 88 166 1 7 10 30 21 52 l20 40 -4 -37 c-1 -21 1 -38 5 -38 5 0 20 -11 33
-25 20 -19 25 -34 25 -75 0 -28 7 -67 15 -87 8 -20 13 -38 11 -40 -11 -12 -54
12 -75 42 -13 19 -27 35 -32 35 -18 0 -19 -22 0 -58 24 -48 70 -88 110 -97 22
-5 34 -17 50 -51 12 -24 21 -46 21 -49 0 -3 -28 -5 -63 -5 -53 0 -67 -4 -85
-23 -23 -24 -31 -90 -13 -102 5 -3 12 -19 16 -35 8 -36 25 -40 25 -5 0 28 19
75 31 75 4 0 10 -4 13 -9 8 -13 56 -20 56 -8 0 6 4 6 13 -1 6 -5 26 -12 42
-15 17 -3 42 -9 57 -12 23 -6 30 -2 46 24 10 17 22 28 26 24 11 -12 0 37 -23
97 -12 30 -21 56 -21 57 0 4 82 40 107 47 11 4 27 13 33 21 15 18 40 20 40 4
0 -6 19 -29 43 -50 32 -29 51 -38 78 -39 45 0 91 22 124 61 30 37 34 105 8
150 -21 35 -49 40 -38 6 18 -56 17 -85 -4 -106 -28 -28 -56 -27 -86 4 -39 38
-35 96 10 148 72 84 37 237 -77 342 -68 62 -81 82 -39 61 20 -11 38 -13 53 -8
44 16 57 4 79 -71 27 -96 42 -120 79 -131 42 -12 73 4 94 48 22 47 10 68 -16
27 -22 -34 -48 -40 -72 -15 -12 12 -16 37 -16 105 0 94 -7 118 -47 158 -38 39
-118 41 -187 6 -29 -15 -62 -25 -71 -23 -18 3 -18 4 0 22 22 21 32 121 16 146
-7 10 -26 15 -56 14 -45 -1 -59 8 -29 20 9 3 27 6 40 6 18 0 24 5 24 22 0 12
7 29 16 39 25 28 43 89 43 149 1 92 -54 185 -142 239 -44 27 -145 37 -210 21z
m185 -1019 c1 -42 2 -43 32 -38 38 6 91 -30 100 -68 4 -14 10 -25 14 -25 5 0
21 28 36 63 l27 62 -6 -45 c-10 -74 -101 -197 -175 -235 -26 -13 -28 -13 -39
11 -12 27 -14 151 -4 257 7 75 12 82 15 18z"/>
<path d="M39 391 c-54 -42 -45 -104 21 -146 31 -20 40 -32 38 -48 -3 -19 -9
-22 -45 -21 -34 0 -43 -3 -47 -20 -7 -26 9 -36 62 -36 35 0 49 6 73 29 51 51
36 106 -40 146 -51 26 -37 71 20 67 17 -1 29 4 33 14 9 23 4 26 -46 31 -33 4
-49 0 -69 -16z"/>
<path d="M1609 335 c-57 -32 -66 -148 -14 -192 40 -35 96 -32 129 8 35 42 37
125 4 164 -28 32 -83 41 -119 20z"/>
<path d="M1830 341 c-24 -7 -25 -9 -28 -114 l-3 -107 30 0 30 0 3 93 c3 87 4
92 26 95 14 2 22 10 22 23 0 20 -29 24 -80 10z"/>
<path d="M212 249 c3 -81 6 -93 27 -110 24 -19 91 -25 139 -13 21 6 22 12 22
94 0 71 -3 90 -18 103 -39 35 -47 23 -47 -70 0 -87 0 -88 -25 -88 -25 0 -25 2
-28 88 l-3 87 -35 0 -36 0 4 -91z"/>
<path d="M1394 315 c-23 -35 -11 -69 32 -94 45 -27 44 -57 -3 -55 -20 1 -34
-4 -38 -14 -15 -39 83 -45 120 -7 14 13 25 29 25 34 0 28 -22 59 -50 71 -40
16 -40 56 0 54 23 -1 39 10 40 29 0 4 -25 7 -55 7 -47 0 -57 -3 -71 -25z"/>
<path d="M579 320 c-14 -8 -15 -16 -6 -49 15 -57 0 -105 -36 -109 l-27 -3 0
70 0 71 -30 0 -30 0 0 -135 0 -135 30 0 c29 0 30 2 30 45 0 44 1 45 31 45 61
0 99 45 99 119 0 49 -35 96 -61 81z"/>
<path d="M497 3 c277 -2 729 -2 1005 0 277 1 51 2 -502 2 -553 0 -779 -1 -503
-2z"/>
</g>
</svg>
