<?xml version="1.0" standalone="no"?>
<!DOCTYPE svg PUBLIC "-//W3C//DTD SVG 20010904//EN"
 "http://www.w3.org/TR/2001/REC-SVG-20010904/DTD/svg10.dtd">
<svg version="1.0" xmlns="http://www.w3.org/2000/svg"
 width="512.000000pt" height="512.000000pt" viewBox="0 0 512.000000 512.000000"
 preserveAspectRatio="xMidYMid meet">
<metadata>
Created by potrace 1.16, written by Peter Selinger 2001-2019
</metadata>
<g transform="translate(0.000000,512.000000) scale(0.100000,-0.100000)"
fill="#000000" stroke="none">
<path d="M2425 4794 c-188 -13 -434 -63 -610 -124 -131 -46 -374 -168 -492
-247 -340 -228 -588 -511 -768 -878 -160 -325 -228 -620 -228 -985 0 -367 68
-658 228 -985 222 -454 566 -798 1020 -1020 324 -159 617 -227 980 -228 370 0
661 67 990 228 454 222 798 566 1020 1020 160 327 228 618 228 985 0 365 -68
658 -228 985 -222 454 -566 798 -1020 1020 -229 112 -436 177 -674 209 -114
16 -348 26 -446 20z m265 -810 c115 -53 180 -148 188 -274 5 -93 -20 -166 -79
-233 -74 -85 -206 -125 -316 -98 -45 12 -49 11 -66 -11 -64 -78 -98 -209 -79
-304 25 -124 46 -151 301 -409 262 -265 287 -294 331 -386 46 -98 64 -194 57
-313 -7 -138 -45 -242 -129 -354 -37 -50 -39 -54 -27 -89 18 -56 7 -169 -24
-228 -98 -192 -355 -236 -510 -87 -122 117 -129 317 -16 445 74 85 206 125
316 98 45 -12 49 -11 66 11 64 78 98 209 79 304 -25 124 -46 151 -301 409
-131 132 -252 259 -269 281 -43 56 -89 156 -103 223 -7 31 -15 59 -18 63 -4 4
-87 -72 -184 -170 l-178 -178 12 -48 c16 -66 6 -156 -26 -221 -94 -194 -366
-235 -517 -78 -119 123 -119 323 0 446 56 58 124 89 208 95 43 3 86 -1 109 -8
l38 -12 354 353 c324 325 353 356 346 379 -4 14 -8 63 -8 110 1 72 5 93 27
135 59 111 163 175 288 175 59 0 86 -6 130 -26z m1145 -1136 c192 -100 236
-356 87 -511 -56 -58 -124 -89 -208 -95 -43 -3 -86 1 -109 8 l-37 12 -233
-232 -232 -232 19 74 c14 52 19 108 19 193 l0 120 125 126 125 125 -12 48
c-38 151 48 318 195 376 73 29 192 23 261 -12z"/>
<path d="M2499 3785 c-15 -8 -34 -31 -44 -51 -14 -30 -15 -43 -6 -74 17 -57
53 -85 111 -85 58 0 94 28 111 85 29 95 -81 174 -172 125z"/>
<path d="M1364 2651 c-29 -18 -54 -63 -54 -98 0 -30 34 -84 61 -98 91 -47 194
33 168 130 -21 74 -108 107 -175 66z"/>
<path d="M2491 1514 c-17 -14 -36 -42 -42 -63 -21 -71 34 -141 111 -141 46 0
85 25 105 66 14 31 15 43 6 75 -16 52 -62 89 -111 89 -27 0 -48 -8 -69 -26z"/>
<path d="M3620 2643 c-57 -52 -56 -129 1 -177 55 -47 142 -28 173 38 20 42 20
57 2 101 -28 66 -122 87 -176 38z"/>
</g>
</svg>
