<?xml version="1.0" standalone="no"?>
<!DOCTYPE svg PUBLIC "-//W3C//DTD SVG 20010904//EN"
 "http://www.w3.org/TR/2001/REC-SVG-20010904/DTD/svg10.dtd">
<svg version="1.0" xmlns="http://www.w3.org/2000/svg"
 width="400.000000pt" height="400.000000pt" viewBox="0 0 400.000000 400.000000"
 preserveAspectRatio="xMidYMid meet">
<metadata>
Created by potrace 1.16, written by Peter Selinger 2001-2019
</metadata>
<g transform="translate(0.000000,400.000000) scale(0.100000,-0.100000)"
fill="#000000" stroke="none">
<path d="M300 1995 l0 -595 1705 0 1705 0 0 595 0 595 -1705 0 -1705 0 0 -595z
m439 235 c1 -14 -2 -56 -8 -95 -6 -38 -21 -137 -32 -220 -12 -82 -23 -153 -26
-157 -2 -5 -29 -8 -59 -8 -52 0 -54 1 -55 28 0 25 0 410 1 460 0 22 2 23 88
20 84 -3 87 -4 91 -28z m329 -227 l2 -253 -125 0 -125 0 0 33 c0 54 65 449 77
470 3 4 41 6 86 5 l82 -3 3 -252z m372 132 c40 -21 60 -49 76 -106 28 -109 24
-113 -122 -119 -72 -3 -119 -9 -121 -16 -2 -6 5 -21 15 -34 15 -18 28 -22 77
-23 33 0 77 6 97 13 21 8 40 11 43 8 13 -12 -16 -88 -37 -99 -12 -6 -59 -12
-104 -13 -76 -1 -85 1 -125 29 -65 45 -84 86 -83 171 1 63 5 76 33 118 18 25
44 54 57 63 51 33 138 37 194 8z m462 14 c70 -19 82 -90 49 -290 -18 -115 -22
-119 -87 -119 l-56 0 5 63 c3 34 10 96 16 137 6 41 8 82 5 92 -8 26 -45 22
-81 -9 -27 -23 -34 -40 -43 -93 -6 -36 -17 -92 -23 -125 l-12 -60 -58 -3 c-46
-2 -59 0 -64 14 -5 15 15 157 38 261 5 23 9 55 9 72 0 56 7 61 75 61 47 0 64
-4 69 -15 5 -13 10 -14 28 -4 19 10 54 21 88 28 3 0 22 -4 42 -10z m1135 -27
c32 -38 33 -82 4 -285 -12 -86 -21 -97 -81 -97 -61 0 -75 15 -61 67 15 61 34
212 27 228 -9 23 -48 17 -82 -13 -32 -28 -42 -65 -60 -209 -3 -29 -12 -57 -19
-63 -7 -6 -37 -10 -67 -8 l-53 3 1 35 c1 33 9 92 34 255 17 112 20 115 90 115
47 0 60 -3 60 -15 0 -19 10 -19 36 -1 47 33 138 27 171 -12z m378 9 c40 -23
65 -70 72 -135 9 -82 3 -86 -133 -86 -104 0 -114 -2 -114 -18 0 -37 36 -56
104 -54 36 0 74 6 86 12 37 20 50 7 38 -40 -14 -52 -36 -62 -143 -64 -97 -1
-140 21 -190 99 -24 39 -26 146 -2 191 22 42 90 102 124 110 16 3 33 7 38 9
19 7 90 -7 120 -24z m-990 9 c12 -19 -15 -80 -36 -80 -16 0 -19 -7 -19 -45 0
-92 -39 -129 -155 -147 -60 -9 -75 -15 -73 -27 2 -9 16 -17 33 -19 123 -13
195 -64 195 -137 0 -80 -64 -115 -212 -115 -127 0 -188 31 -188 95 0 26 8 39
37 63 36 29 37 31 20 49 -9 11 -17 30 -17 43 0 26 26 60 47 60 18 0 16 9 -12
55 -50 81 -18 172 70 203 39 14 302 15 310 2z m180 -42 c-3 -29 -10 -80 -15
-113 -5 -33 -14 -94 -20 -135 -7 -41 -15 -82 -19 -90 -9 -16 -70 -25 -108 -15
-23 5 -24 9 -18 58 11 92 35 240 47 295 l11 52 64 0 64 0 -6 -52z"/>
</g>
</svg>
