<?xml version="1.0" encoding="UTF-8"?> <svg xmlns="http://www.w3.org/2000/svg" id="Layer_1" data-name="Layer 1" viewBox="0 0 120 135"><defs><style>.cls-1{fill:#000000;}.cls-2{fill:#fff;}</style></defs><title>01_INSTANA_IconSet</title><path class="cls-1" d="M52,4.64,9.56,29.15A16,16,0,0,0,1.57,43V92a16,16,0,0,0,8,13.84L52,130.36a16,16,0,0,0,16,0l42.45-24.51a16,16,0,0,0,8-13.84V43a16,16,0,0,0-8-13.84L68,4.64A16,16,0,0,0,52,4.64Z"></path><path class="cls-2" d="M38.08,84.74l4.45.85V63.05l-1-.7c-.09-.05-.19-.14-.28-.19a1.26,1.26,0,0,1-.75-1.82c-.74-.19-1.45-.47-1.54-1.36,0-.74.47-1.12,1.13-1.4L40,57.44A1.21,1.21,0,0,1,39.58,56a1.42,1.42,0,0,1,1.49-.75,2.82,2.82,0,0,1,.89.38,3,3,0,0,1,.52.23V48.69h1.87V56c.09,0,.09.09.14.09A3.61,3.61,0,0,1,48,58.32a1.72,1.72,0,0,0,.61.69,15.58,15.58,0,0,0,1.49.7c.19.09.38.09.47-.14s.23-.14.33-.19c.38-.14.7-.32,1.08-.46a18.88,18.88,0,0,0,3.69-2.67c1.26-.89,2.39-1.92,3.56-2.86.88-.7,1.73-1.45,2.61-2.06a7.7,7.7,0,0,1,1.41-.61l.28-.14v-.09c-.94-.84-.85-2-1-3.08-.05-.28-.09-.47-.33-.61a1.82,1.82,0,0,1-1-1.82,1.49,1.49,0,0,0-.19-.66c-.09-.28,0-.33.47-.33-.09-.75-.19-1.49-.28-2.2,0-.09-.14-.23-.23-.33a1.82,1.82,0,0,0-.28-.14c-1.36-.79-1.45-2.06-.19-3a9.37,9.37,0,0,1,6.17-1.83,9.23,9.23,0,0,1,4.68,1.36,4.72,4.72,0,0,1,1.78,1.82A1.67,1.67,0,0,1,72.73,42c-.33.28-.7.47-1,.7s-.37.28-.6.42a1.78,1.78,0,0,1,.41.42c.1.14.23.37.19.42-.23.37-.09.69,0,1.07a1.89,1.89,0,0,1-.93,1.82.9.9,0,0,0-.23.38,3.56,3.56,0,0,0,0,1,2.27,2.27,0,0,1-.75,2.15c.38.28.75.52,1.08.75.56.32,1.07.65,1.63,1a4,4,0,0,1,1.31,1.45,1.33,1.33,0,0,0,.33.38,2.75,2.75,0,0,1,1.46,2,.71.71,0,0,0,.46.56,1.37,1.37,0,0,1,1,1.32c0,.09.09.18.14.27a2.55,2.55,0,0,1,.28,3l-.28.42a8.26,8.26,0,0,0-1.36,3.42c-.41,0-.93,0-1.16.13A8.71,8.71,0,0,1,74,66.48a.46.46,0,0,0,.61.23,1.11,1.11,0,0,1,1.35.74c0,.1.14.14.19.23s.33.23.33.38c0,.42.33.61.56.85a1.27,1.27,0,0,1,.14,1.59,3.24,3.24,0,0,1-5,.94c-.05,0-.14-.09-.19-.14a.59.59,0,0,0-.09.88,6.54,6.54,0,0,0,1.49,1.69,1.43,1.43,0,0,1,.33.28l-.93.14a9.49,9.49,0,0,1,.42,1.12,3.36,3.36,0,0,0,.84,1.82s.14.14.09.23c-.19.56.28,1,.42,1.46a.74.74,0,0,1,0,.55c-.28.61-.61,1.22-.84,1.78a5.7,5.7,0,0,0,.65.65c-.23.19-.47.42-.7.61a8.11,8.11,0,0,1,1.27.52c.28.14.66.47.66.66,0,.41-.52.41-.85.41a2.28,2.28,0,0,0-1.45.52,5.48,5.48,0,0,1-1.5.66c-.23.09-.38.19-.38.47a3.74,3.74,0,0,1-.09.74,1,1,0,0,0,.19.8,2.36,2.36,0,0,1,.33,2,.79.79,0,0,0,.42,1,.49.49,0,0,0,.42,0,7.5,7.5,0,0,0,1.45-.89,3.42,3.42,0,0,1,4.16,0,2.5,2.5,0,0,1,1.08,2.24c0,.56-.09,1.08-.09,1.63a.65.65,0,0,0,.23.47,1.06,1.06,0,0,1,.38,1.13,1.12,1.12,0,0,1-.85.84,18.07,18.07,0,0,1-4.82.33c-2,0-3.93-.09-5.93-.19a7.3,7.3,0,0,1-1.46-.19.76.76,0,0,1-.74-.6.84.84,0,0,1,.28-.94,11,11,0,0,1-.19-1.59,2.64,2.64,0,0,1,.42-1.13,2.8,2.8,0,0,0,.51-2.06,3.25,3.25,0,0,1-.05-.93,2,2,0,0,1,1-1.69c-.14-.47-.23-.88-.38-1.31a.7.7,0,0,0-.28-.23c-.52-.28-1-.61-1.54-.89-.09,0-.14-.14-.23-.14-.42-.09-.52-.37-.42-.74A21.52,21.52,0,0,0,65.44,77c-.14-1.4-.33-2.75-.47-4.25,0,.42,0,.75-.09,1.08-.14,2.39-.28,4.72-.42,7.11a2.64,2.64,0,0,1-.88,1.92c.14.28.37.51.37.74a1,1,0,0,1-.46,1.08c-.33-.33-.61-.14-.94.14a4.23,4.23,0,0,1-2.06.89A1,1,0,0,0,59.88,87a3.59,3.59,0,0,1,.33,2.1.45.45,0,0,0,.23.56,2.36,2.36,0,0,1,1.17,2.57,10.48,10.48,0,0,0,0,1.68.36.36,0,0,0,.14.23,1.18,1.18,0,0,1,.23,1.46,1,1,0,0,1-.47.37,16.32,16.32,0,0,1-7.39.09,1,1,0,0,1-.8-.84,1,1,0,0,1,.38-1,.6.6,0,0,0,.28-.61c0-.46,0-.88-.09-1.35a2.64,2.64,0,0,1,1.35-2.62,7.64,7.64,0,0,1,.89-.47c.05-.65.09-1.26.19-1.87a5.21,5.21,0,0,1,.28-.66c.05-.14.23-.28.23-.37A2.65,2.65,0,0,0,56.36,85a3.9,3.9,0,0,1-1.31-1.68c-.09-.33-.47-.56-.75-.85.52-.66,1.07-1.26,1.68-2-.33-.19-.66-.33-1-.52a13.52,13.52,0,0,0,1.73-4.58H56a.61.61,0,0,0,.09-.28c.19-.33.38-.65.61-1a2.69,2.69,0,0,0,.56-1.88,1.53,1.53,0,0,1,.14-.79c.69-1.54,1.4-3,2.1-4.58a1.4,1.4,0,0,0-.28-1.17.75.75,0,0,1-.23-.52c0-.51-.09-1-.14-1.54a1.87,1.87,0,0,1,.42-1.54,2.73,2.73,0,0,0,.6-2.15,3.34,3.34,0,0,0-.37-.94c-1.69,1.22-3.32,2.43-5,3.6a8.49,8.49,0,0,1-.89.38l-1.77.7c-.14.05-.28.14-.42.19-.61.23-1,0-1.07-.61,0-.28-.14-.38-.42-.38a9.94,9.94,0,0,1-1.6-.28,6,6,0,0,0-3,.19c-.28.09-.56.14-.85.23V85.6h3a33.13,33.13,0,0,0,1.26,6,6.21,6.21,0,0,0,1.41,2.9c.28.23.19.8-.14,1.08a3.62,3.62,0,0,1-1.22.65,13.76,13.76,0,0,1-6.5-.33,7.64,7.64,0,0,1-1.35-.6,2.68,2.68,0,0,1-1.22-1.46A23.78,23.78,0,0,1,38.07,85v-.19A.08.08,0,0,1,38.08,84.74ZM71.76,64s0,0,.09,0c.05-.33.09-.65.14-1a3.2,3.2,0,0,1,.14-.66c.42-.89.89-1.77,1.36-2.67a.71.71,0,0,0,0-.42,2.22,2.22,0,0,0-1.4-1,10.15,10.15,0,0,1,.14,1.16c0,.14-.09.23-.14.38s-.33.42-.33.61C71.71,61.64,71.76,62.81,71.76,64Z"></path></svg> 